:SAMPLES-PER-SECOND 24
:FULLY-SPECIFIED
:DEGREES
475
root  18.1225 38.5623 30.5893 8.5979 21.2562 2.35965
RightUpLeg  -30.17 -3.35405 -11.0412
RightLeg  43.2187 -2.67573 -3.00485
RightFoot  -4.73274 -0.64146 10.3932
RightToes  -2.08645e-008 3.77894e-005 6.81332e-007
Spine  5.48197 -3.09983 2.02992
Spine1  3.95343 -3.62236 2.73761
HEad  -28.149 -5.44547 2.04887
LeftShoulder1  7.73667 -13.5968 -39.0861
LeftArm  -10.158 44.8038 -34.1052
LeftForeArm  156.015 -71.8302 -148.621
LeftHand  -0.0470523 -4.62732 0.842382
RightShoulder  4.36743 6.92956 35.9435
RightArm  13.1919 -13.0737 33.3071
RightForeArm  152.809 74.9698 141.28
RightHand  -0.185398 8.04254 -1.96924
LeftUpLeg  -10.2735 -2.292 18.0719
LeftLeg  17.5472 -2.76341 -0.726699
LeftFoot  -1.63751 2.08208 -24.0958
LeftToes  1.24767e-006 1.47042e-008 1.32732e-009
476
root  17.3312 37.7029 30.4451 6.67505 22.8193 0.632416
RightUpLeg  -27.6594 -4.21061 -8.41245
RightLeg  42.0195 -1.38453 -1.63249
RightFoot  -12.2237 -0.0323932 8.7943
RightToes  -2.08645e-008 3.77894e-005 6.81332e-007
Spine  6.26216 -2.66821 3.06344
Spine1  4.03493 -3.19822 3.13948
HEad  -28.8322 -7.85818 3.57215
LeftShoulder1  8.17141 -13.9388 -40.603
LeftArm  -9.39369 38.8388 -32.717
LeftForeArm  152.505 -73.1594 -145.395
LeftHand  -0.313548 -3.73837 4.25469
RightShoulder  4.39975 6.97987 36.0481
RightArm  13.3165 -9.76874 35.2492
RightForeArm  137.048 78.0554 126.578
RightHand  -0.363187 8.29545 -3.44918
LeftUpLeg  -11.2842 -3.4864 20.3257
LeftLeg  20.9097 0.87413 0.702519
LeftFoot  -6.37806 1.08877 -23.8743
LeftToes  1.24767e-006 1.47042e-008 1.32732e-009
477
root  16.6402 37.3449 30.1857 5.37305 20.1599 -0.821564
RightUpLeg  -27.8685 -2.45561 -5.29612
RightLeg  41.5321 -2.74608 -2.90564
RightFoot  -13.9858 0.0250951 5.10658
RightToes  -2.08645e-008 3.77894e-005 6.81332e-007
Spine  6.41738 -1.12168 3.5431
Spine1  4.24225 -1.31761 2.00146
HEad  -29.0083 -9.24811 7.34042
LeftShoulder1  8.75469 -14.3939 -42.5384
LeftArm  -6.44981 29.6934 -30.2438
LeftForeArm  148.009 -76.6931 -135.031
LeftHand  -0.567392 -3.12398 7.97135
RightShoulder  4.59888 7.1884 37.0627
RightArm  11.8353 -8.36519 35.6982
RightForeArm  109.701 80.3917 96.998
RightHand  -0.515208 8.73753 -4.60632
LeftUpLeg  -9.02261 -3.46552 21.6617
LeftLeg  19.03 7.22741 3.01019
LeftFoot  -6.83651 0.939052 -22.4339
LeftToes  1.24767e-006 1.47042e-008 1.32732e-009
478
root  16.1565 37.8003 29.7418 5.35107 18.3348 -0.214386
RightUpLeg  -27.0132 0.397418 -5.27277
RightLeg  37.6646 -4.79356 -4.22749
RightFoot  -11.4218 -0.0746428 4.07116
RightToes  -2.08645e-008 3.77894e-005 6.81332e-007
Spine  6.42304 -1.25308 -0.640035
Spine1  4.07888 -1.97747 3.69885
HEad  -29.5513 -7.49166 11.4354
LeftShoulder1  8.79312 -14.4238 -42.664
LeftArm  -4.11922 23.9556 -29.5735
LeftForeArm  149.812 -77.4472 -132.77
LeftHand  -0.561043 -2.88718 8.09908
RightShoulder  4.63722 7.24152 37.2044
RightArm  12.1055 -11.5259 36.2157
RightForeArm  102.781 80.4009 91.9324
RightHand  -0.508583 8.81125 -4.53306
LeftUpLeg  -6.76241 -0.881577 19.6232
LeftLeg  14.4327 12.4577 4.85313
LeftFoot  -2.30561 1.5149 -18.8518
LeftToes  1.24767e-006 1.47042e-008 1.32732e-009
479
root  16.0759 38.9922 28.9562 6.7605 17.8107 1.02332
RightUpLeg  -24.6845 0.723494 -6.95709
RightLeg  27.5343 -4.24121 -2.65171
RightFoot  -3.9773 -0.27842 3.93299
RightToes  -2.08645e-008 3.77894e-005 6.81332e-007
Spine  6.21656 -3.26204 -5.97449
Spine1  3.0858 -5.02729 7.58662
HEad  -29.4975 -3.9 12.3799
LeftShoulder1  8.3594 -14.098 -41.2128
LeftArm  -1.47959 23.1175 -30.9749
LeftForeArm  153.537 -75.3917 -140.3
LeftHand  -0.508717 -2.98403 7.29014
RightShoulder  4.36146 7.00272 35.5984
RightArm  14.9413 -16.7683 35.7512
RightForeArm  124.601 79.0325 117.344
RightHand  -0.165942 9.18558 -1.72226
LeftUpLeg  -6.77859 4.98188 14.9659
LeftLeg  11.0745 11.9627 4.20696
LeftFoot  0.367207 1.60828 -15.544
LeftToes  1.24767e-006 1.47042e-008 1.32732e-009
480
root  16.3409 40.3173 27.846 8.41992 13.793 0.858459
RightUpLeg  -23.2463 -1.80387 -6.80632
RightLeg  14.5671 1.50809 -0.279355
RightFoot  8.26279 -1.22585 7.12032
RightToes  -2.08645e-008 3.77894e-005 6.81332e-007
Spine  6.25464 -4.29581 -7.51997
Spine1  0.922575 -6.3949 9.90811
HEad  -28.3499 -0.742844 10.8295
LeftShoulder1  8.01882 -13.8617 -39.9746
LeftArm  2.3466 22.9622 -32.0064
LeftForeArm  155.947 -72.9908 -146.395
LeftHand  -0.466021 -3.42372 6.39887
RightShoulder  4.09519 6.79176 33.8898
RightArm  18.1488 -20.8156 32.9054
RightForeArm  141.287 76.1873 135.386
RightHand  0.242617 10.2326 1.3812
LeftUpLeg  -7.34568 8.28773 10.207
LeftLeg  12.2059 6.42154 1.56809
LeftFoot  -2.54907 1.42348 -18.4631
LeftToes  1.24767e-006 1.47042e-008 1.32732e-009
